<svg width="424" height="179" viewBox="0 0 424 179" fill="none" xmlns="http://www.w3.org/2000/svg">
<path d="M420.713 94.0385C420.713 99.2985 416.574 103.384 411.362 103.384H411.214C405.949 103.384 401.855 99.2465 401.855 94.0385V93.8865C401.855 88.6772 405.995 84.5345 411.214 84.5345H411.362C416.574 84.5345 420.713 88.6772 420.713 93.8865V94.0385ZM411.362 81.8279H411.214C404.391 81.8279 399.111 87.1465 399.111 93.8865V94.0385C399.111 100.829 404.391 106.143 411.214 106.143H411.362C418.106 106.143 423.415 100.829 423.415 94.0385V93.8865C423.415 87.1465 418.106 81.8279 411.362 81.8279Z" fill="#171717"/>
<path d="M411.508 93.6278H409.304V90.2624H411.508C412.78 90.2624 413.591 90.9211 413.591 91.9398C413.591 92.9678 412.78 93.6278 411.508 93.6278ZM416.5 91.9398L416.572 91.9984C416.572 89.3398 414.814 87.8584 411.81 87.8584H406.396V100.169H409.25V95.9838H411.307L413.638 100.169H416.92L414.216 95.4638C415.647 94.9091 416.5 93.5251 416.5 91.9398Z" fill="#171717"/>
<path d="M64.6022 176.518C34.3209 176.504 17.2395 150.304 17.2395 112.21C17.2395 74.0991 36.7289 47.7418 67.1889 47.7418C97.6355 47.7418 115.312 74.1498 115.312 112.21C115.312 150.25 95.0929 176.504 64.6022 176.518ZM66.4582 45.9031C31.5182 45.9031 0.519531 73.3871 0.519531 112.262C0.519531 151.13 30.4662 178.412 65.3582 178.412C100.246 178.412 131.853 150.16 131.853 112.262C131.853 74.3591 101.35 45.9031 66.4582 45.9031Z" fill="#171717"/>
<path d="M222.987 85.8517H223.042C237.347 85.8517 244.39 95.8624 244.39 102.762C244.39 105.568 243.849 107.413 242.714 108.688C242.134 109.244 238.047 110.37 235.245 110.37C223.185 110.37 210.53 111.134 189.53 111.134C194.539 94.2304 206.799 85.8517 222.987 85.8517ZM321.209 85.1344C321.209 82.7344 317.326 81.8184 312.839 81.8184C308.96 81.8184 305.45 82.9384 302.271 84.9771C297.247 88.5051 292.267 92.5957 290.006 100.769C289.23 93.5117 285.144 86.6637 282.042 83.657C281.483 83.297 281.114 83.2971 280.906 83.4464C277.75 86.6197 271.612 89.9384 268.102 91.2677C267.524 91.4717 267.524 91.8304 268.102 92.3877C272.391 96.2651 276.626 101.122 276.626 106.488V136.934C266.675 155.888 253.439 167.582 232.638 167.582C207.569 167.582 187.694 149.753 187.694 126.872C187.694 121.869 188.249 117.216 189.174 112.572H252.713C258.507 112.572 259.978 109.958 260.538 106.794C261.463 98.2611 255.125 81.713 228.201 81.713C201.283 81.713 176.541 105.874 176.541 133.712C176.541 141.43 178.195 148.474 181.258 154.662L181.055 154.45C177.422 159.458 166.595 170.593 159.901 170.593C153.213 170.593 153.561 156.802 153.71 150.062L153.886 91.0104H153.939C153.411 57.1451 152.335 47.5411 166.493 39.0144C175.739 33.4384 185.19 28.9984 193.611 25.0611C200.354 21.8904 206.443 19.0384 211.287 16.1251C215.413 13.7224 215.993 -1.80427 209.998 0.645061C203.009 3.86773 196.215 7.53706 189.674 11.6771C158.871 30.0704 146.563 61.9971 142.033 88.9664C141.654 91.1157 141.507 93.2557 141.507 95.4064L141.301 143.369V149.034V153.332C141.21 166.969 141.105 178.722 152.655 178.722C162.71 178.722 175.893 164.205 182.282 156.648C189.729 169.985 204.187 178.409 223.185 178.409C247.873 178.409 265.951 160.125 276.626 140.206V154.45C276.626 173.765 275.143 174.886 266.194 174.886C264.714 174.886 264.714 176.572 266.194 176.572C271.562 176.572 282.187 176.212 285.145 176.212C288.13 176.212 300.231 176.572 301.717 176.572C303.193 176.572 303.193 174.886 301.717 174.886H290.358V112.616C290.358 96.8371 291.636 94.7851 305.02 94.7851H311.916C318.408 94.7851 321.209 88.0971 321.209 85.1344Z" fill="#171717"/>
<path d="M378.83 118.952C378.83 134.377 377.933 143.317 377.703 145.72C376.226 151.845 359.33 170.444 349.11 170.444C340.161 170.444 329.802 162.471 329.802 152.405C329.802 138.668 336.269 132.896 363.613 121.556L378.83 115.069V118.952ZM406.874 161.811V161.864C405.046 165.743 399.982 172.077 396.875 172.077C392.99 172.077 391.662 166.861 391.662 156.291C391.662 148.836 393.145 128.043 393.145 115.583C393.145 91.2174 380.106 81.7614 361.718 81.7614C348.561 81.7614 332.765 89.5787 325.497 94.384C320.853 97.344 319.033 100.871 319.033 103.119C319.033 105.927 321.988 107.407 326.474 107.407C331.481 107.407 333.166 106.484 334.842 104.088C338.73 98.1614 342.665 83.452 358.81 83.452C372.394 83.452 377.753 90.4987 378.682 113.744L363.265 119.671C328.877 133.048 316.826 145.307 316.826 157.773C316.826 169.115 324.994 178.564 339.857 178.564C352.89 178.564 372.394 158.492 377.397 149.959C376.851 153.841 376.649 160.176 376.649 165.177C376.649 173.561 379.957 178.363 387.199 178.363C394.47 178.363 406.377 167.58 409.131 163.291C410.035 161.811 407.858 160.328 406.874 161.811Z" fill="#171717"/>
</svg>
